<svg width="82" height="85" viewBox="0 0 82 85" fill="none" xmlns="http://www.w3.org/2000/svg">
<g clip-path="url(#clip0_0_185)">
<path d="M81.5463 70.4976C81.5463 78.2524 75.4304 84.5972 67.9553 84.5972H13.5911C6.11598 84.5972 0 78.2524 0 70.4976V14.0995C0 6.34479 6.11598 0 13.5911 0H67.9553C75.4304 0 81.5463 6.34479 81.5463 14.0995V70.4976Z" fill="#563D7C"/>
<path d="M22.1585 18.3849H45.2767C49.5405 18.3849 52.9649 19.394 55.5366 21.426C58.1082 23.4579 59.4007 26.5128 59.4007 30.6183C59.4007 33.1064 58.8144 35.2352 57.6419 37.0046C56.4693 38.7739 54.7904 40.1562 52.6052 41.1238V41.2621C55.5366 41.9117 57.7618 43.3493 59.2675 45.5749C60.7731 47.8142 61.5326 50.6064 61.5326 53.9793C61.5326 55.9145 61.1995 57.7253 60.5333 59.3979C59.8671 61.0843 58.8277 62.5358 57.402 63.7522C55.9763 64.9686 54.1641 65.9362 51.9389 66.655C49.7137 67.3738 47.0755 67.7332 44.0108 67.7332H22.1585V18.3849ZM30.4864 39.0504H44.0774C46.0761 39.0504 47.7417 38.4698 49.0742 37.281C50.4066 36.0922 51.0728 34.4058 51.0728 32.1941C51.0728 29.706 50.4732 27.9504 49.274 26.9414C48.0748 25.9323 46.3426 25.4208 44.0774 25.4208H30.4864V39.0504ZM30.4864 60.6835H45.21C47.7417 60.6835 49.7137 60.0061 51.0995 58.6377C52.4986 57.283 53.2048 55.3478 53.2048 52.8596C53.2048 50.4129 52.5119 48.5468 51.0995 47.2198C49.6871 45.8928 47.7417 45.2569 45.21 45.2569H30.4864V60.6835Z" fill="white"/>
</g>
<defs>
<clipPath id="clip0_0_185">
<rect width="81.5463" height="84.5972" fill="white"/>
</clipPath>
</defs>
</svg>
