<svg width="150" height="150" viewBox="0 0 150 150" fill="none" xmlns="http://www.w3.org/2000/svg">
<rect x="1.5" y="1.5" width="147" height="147" rx="73.5" fill="#FECE1A" stroke="white" stroke-width="3"/>
<path d="M115.492 73.96L94.5641 53.0324C93.9133 52.3816 92.7619 52.3816 92.1111 53.0324L87.574 57.5695C86.8963 58.2472 86.8963 59.3456 87.574 60.0233L102.739 75.1861L87.5749 90.3515C86.8972 91.0291 86.8972 92.1276 87.5749 92.8053L92.112 97.3424C92.4374 97.6678 92.879 97.8517 93.3389 97.8517C93.7979 97.8517 94.2404 97.6678 94.5658 97.3424L115.492 76.4156C116.169 75.7371 116.169 74.6377 115.492 73.96Z" fill="white"/>
<path d="M62.4251 90.3514L47.2632 75.1878L62.4277 60.025C62.7531 59.6996 62.9362 59.2589 62.9362 58.7981C62.9362 58.3382 62.7539 57.8966 62.4277 57.5712L57.8906 53.0341C57.5652 52.7087 57.1235 52.5256 56.6637 52.5256C56.2038 52.5256 55.7622 52.7087 55.4368 53.0341L34.5082 73.96C33.8306 74.6377 33.8306 75.7362 34.5082 76.4147L55.4359 97.3415C55.7613 97.6669 56.2029 97.8508 56.6628 97.8508C57.1227 97.8508 57.5643 97.6669 57.8897 97.3415L62.4268 92.8044C63.1045 92.1276 63.1045 91.0291 62.4251 90.3514Z" fill="white"/>
<path d="M86.9007 45.992C86.6803 45.5877 86.3089 45.2875 85.8681 45.1573L82.19 44.0718C81.272 43.7994 80.3054 44.3261 80.0347 45.2449L62.9595 103.07C62.8294 103.512 62.8797 103.986 63.0992 104.39C63.3188 104.795 63.691 105.094 64.1318 105.225L67.8099 106.311C67.9739 106.359 68.1396 106.383 68.3019 106.383C69.0507 106.383 69.7422 105.893 69.9652 105.138L87.0404 47.3118C87.1705 46.8701 87.1211 46.3955 86.9007 45.992Z" fill="white"/>
</svg>
