<svg width="150" height="150" viewBox="0 0 150 150" fill="none" xmlns="http://www.w3.org/2000/svg">
<rect x="1.5" y="1.5" width="147" height="147" rx="73.5" fill="#FECE1A" stroke="white" stroke-width="3"/>
<path d="M105.705 44.6636H104.732C106.587 41.6442 105.902 37.5906 102.926 35.3822C99.7187 33.003 95.1612 33.7688 92.9231 37.1135L87.8709 44.6638H44.4697C40.9023 44.6638 38 47.5661 38 51.1335V92.497C38 96.0644 40.9023 98.9667 44.4697 98.9667H69.6001L67.7013 106.942H63.6031C60.9322 106.942 58.7593 109.115 58.7593 111.786V112.797H53.7072C52.8227 112.797 52.1057 113.514 52.1057 114.398C52.1057 115.283 52.8227 116 53.7072 116H96.4681C97.3526 116 98.0696 115.283 98.0696 114.398C98.0696 113.514 97.3526 112.797 96.4681 112.797H91.416V111.786C91.416 109.115 89.243 106.942 86.5722 106.942H82.474L80.5752 98.9667H105.706C109.273 98.9667 112.175 96.0644 112.175 92.497V83.3955V51.1333C112.175 47.5659 109.273 44.6636 105.705 44.6636V44.6636ZM82.7583 72.8184C80.2543 74.5713 75.5632 72.1887 71.0834 74.5792C69.9903 68.9009 70.6795 63.5606 76.3689 62.3819C77.1042 62.2286 77.8958 62.1593 78.5698 62.1727C80.4955 63.6014 82.4433 65.0465 84.3635 66.4714C85.2041 68.9166 84.8886 71.3273 82.7583 72.8184ZM84.3723 55.6519L88.9058 59.0155L85.4194 63.2661C83.9841 62.2012 82.7503 61.2858 81.315 60.2208C81.613 59.7754 84.0999 56.0589 84.3723 55.6519V55.6519ZM95.5853 38.8949C96.7983 37.0818 99.2722 36.6599 101.017 37.9548C102.763 39.2498 103.076 41.7395 101.692 43.4261C99.2379 46.4183 93.4029 53.5324 90.9392 56.5361L86.1554 52.9868L95.5853 38.8949ZM88.2128 111.786V112.797H61.9623V111.786C61.9623 110.881 62.6984 110.145 63.6031 110.145H86.572C87.4767 110.145 88.2128 110.881 88.2128 111.786ZM79.1812 106.942H70.9939L72.8927 98.9667H77.2825L79.1812 106.942ZM108.972 92.497C108.972 94.2982 107.507 95.7636 105.706 95.7636C103.163 95.7636 47.3283 95.7636 44.4699 95.7636C42.6686 95.7636 41.2032 94.2982 41.2032 92.497V84.997H45.7798C46.6643 84.997 47.3813 84.2798 47.3813 83.3955C47.3813 82.5111 46.6643 81.7939 45.7798 81.7939H41.2029V51.1333C41.2029 49.3321 42.6683 47.8667 44.4696 47.8667H85.7275C84.1932 50.1596 79.7171 56.8489 78.2993 58.9676C75.1607 58.9959 72.0273 60.0893 69.9761 62.4839C67.1848 65.7422 66.6944 70.862 68.5185 77.7009C68.8304 78.8703 70.2895 79.2893 71.1724 78.4459C75.3135 74.489 80.4711 78.8051 85.0898 75.0668C87.9091 72.7847 88.5763 69.1565 87.5132 65.7638C88.9503 64.0118 100.752 49.6229 102.193 47.8667H105.705C107.506 47.8667 108.972 49.3321 108.972 51.1333V81.7938H58.5917C57.7072 81.7938 56.9902 82.5109 56.9902 83.3953C56.9902 84.2797 57.7072 84.9968 58.5917 84.9968H108.972V92.497Z" fill="white"/>
<path d="M51.8765 81.8248C51.1055 81.9824 50.5888 82.6488 50.5888 83.3961C50.5888 84.3979 51.5047 85.165 52.5027 84.9656C53.3895 84.7856 53.9297 83.931 53.7599 83.0822C53.5817 82.2061 52.7319 81.6526 51.8765 81.8248V81.8248Z" fill="white"/>
</svg>
