<svg width="59" height="85" viewBox="0 0 59 85" fill="none" xmlns="http://www.w3.org/2000/svg">
<g clip-path="url(#clip0_0_201)">
<path d="M15.2379 84.5973C23.2228 84.5973 29.7032 78.2807 29.7032 70.4977V56.3982H15.2379C7.25307 56.3982 0.772614 62.7148 0.772614 70.4977C0.772614 78.2807 7.25307 84.5973 15.2379 84.5973Z" fill="#0ACF83"/>
<path d="M0.772614 42.2985C0.772614 34.5155 7.25307 28.1989 15.2379 28.1989H29.7032V56.398H15.2379C7.25307 56.398 0.772614 50.0814 0.772614 42.2985Z" fill="#A259FF"/>
<path d="M0.771484 14.0995C0.771484 6.31659 7.25194 5.72205e-06 15.2368 5.72205e-06H29.7021V28.1991H15.2368C7.25194 28.1991 0.771484 21.8825 0.771484 14.0995Z" fill="#F24E1E"/>
<path d="M29.704 5.72205e-06H44.1693C52.1541 5.72205e-06 58.6346 6.31659 58.6346 14.0995C58.6346 21.8825 52.1541 28.1991 44.1693 28.1991H29.704V5.72205e-06Z" fill="#FF7262"/>
<path d="M58.6346 42.2985C58.6346 50.0814 52.1541 56.398 44.1693 56.398C36.1844 56.398 29.704 50.0814 29.704 42.2985C29.704 34.5155 36.1844 28.1989 44.1693 28.1989C52.1541 28.1989 58.6346 34.5155 58.6346 42.2985Z" fill="#1ABCFE"/>
</g>
<defs>
<clipPath id="clip0_0_201">
<rect width="57.8728" height="84.5972" fill="white" transform="translate(0.767578)"/>
</clipPath>
</defs>
</svg>
