<svg width="82" height="85" viewBox="0 0 82 85" fill="none" xmlns="http://www.w3.org/2000/svg">
<path d="M0 0H81.5463V84.5972H0V0Z" fill="#F7DF1E"/>
<path d="M21.4415 70.6953L27.682 66.7774C28.8859 68.9918 29.9811 70.8655 32.6081 70.8655C35.1262 70.8655 36.7137 69.8436 36.7137 65.8689V38.8381H44.377V65.9813C44.377 74.2154 39.7245 77.9633 32.9366 77.9633C26.8062 77.9633 23.2477 74.6695 21.4414 70.6947" fill="black"/>
<path d="M48.5393 69.8437L54.779 66.0958C56.4216 68.8787 58.5564 70.9228 62.3332 70.9228C65.5085 70.9228 67.5333 69.2759 67.5333 67.0044C67.5333 64.2786 65.4533 63.3131 61.9499 61.7236L60.0346 60.8712C54.5057 58.4298 50.838 55.3634 50.838 48.8896C50.838 42.927 55.217 38.3838 62.0597 38.3838C66.9315 38.3838 70.4348 40.1444 72.9525 44.7442L66.9859 48.719C65.6721 46.2774 64.2493 45.3122 62.0598 45.3122C59.8155 45.3122 58.3922 46.7886 58.3922 48.719C58.3922 51.1041 59.8155 52.0698 63.0995 53.5463L65.0152 54.3981C71.5292 57.2944 75.1968 60.2469 75.1968 66.8908C75.1968 74.0463 69.7777 77.9643 62.4976 77.9643C55.3816 77.9643 50.7834 74.4437 48.5394 69.8437" fill="black"/>
</svg>
