<svg width="90" height="85" viewBox="0 0 90 85" fill="none" xmlns="http://www.w3.org/2000/svg">
<path d="M0 41.9182C0 48.9855 6.61049 55.5831 17.0325 59.3019C14.9513 70.2398 16.6595 79.0557 22.365 82.4909C28.2297 86.0216 36.9667 83.5776 45.2593 76.0103C53.3426 83.2721 61.5123 86.13 67.2125 82.6851C73.0715 79.1442 74.8537 69.7303 72.7149 58.451C83.57 54.7043 89.642 49.0785 89.642 41.9182C89.642 35.0148 83.0192 29.0423 72.7378 25.3473C75.0402 13.6018 73.0893 4.99985 67.1476 1.4228C61.4192 -2.02571 53.1547 0.980015 44.9524 8.43204C36.4194 0.522304 28.2365 -1.89264 22.3005 1.69484C16.5776 5.15316 14.9446 14.1293 17.0325 25.2697C6.9624 28.9351 0 35.0424 0 41.9182Z" fill="white"/>
<path d="M70.559 29.0166C69.7331 28.7199 68.8774 28.4391 67.9963 28.1735C68.1411 27.5565 68.274 26.9475 68.3922 26.3488C70.3321 16.5181 69.0637 8.59841 64.7325 5.99091C60.5794 3.49067 53.7874 6.09757 46.9277 12.3298C46.2681 12.929 45.6066 13.5635 44.9454 14.2285C44.5049 13.7885 44.065 13.3634 43.6263 12.9567C36.4372 6.29285 29.2312 3.48461 24.9042 6.09965C20.7551 8.60714 19.5264 16.0524 21.2726 25.369C21.4412 26.2689 21.6384 27.1879 21.8613 28.1222C20.8414 28.4244 19.8568 28.7466 18.9148 29.0894C10.4863 32.1571 5.10352 36.965 5.10352 41.952C5.10352 47.1027 10.882 52.2688 19.6609 55.4013C20.3537 55.6485 21.0725 55.8823 21.8134 56.1042C21.5729 57.1147 21.3637 58.105 21.1882 59.0708C19.5231 68.2258 20.8234 75.4951 24.9615 77.9868C29.2357 80.56 36.4091 77.915 43.3942 71.5408C43.9463 71.037 44.5003 70.5026 45.0554 69.9426C45.7748 70.6658 46.4931 71.3503 47.2076 71.9923C53.9734 78.0705 60.6558 80.5249 64.7901 78.0263C69.0601 75.4457 70.4478 67.6367 68.6461 58.1358C68.5085 57.4101 68.3484 56.6688 68.1686 55.9144C68.6723 55.7589 69.1669 55.5984 69.6491 55.4315C78.7756 52.2747 84.7136 47.1714 84.7136 41.952C84.7136 36.9469 79.1572 32.1067 70.559 29.0166Z" fill="#53C1DE"/>
<path d="M68.5796 52.0616C68.1443 52.2121 67.6977 52.3575 67.2425 52.4985C66.235 49.1686 64.8752 45.6278 63.2111 41.9695C64.7991 38.3984 66.1063 34.9028 67.0856 31.5946C67.9 31.8406 68.6904 32.1001 69.4521 32.3739C76.8191 35.0215 81.3128 38.936 81.3128 41.9522C81.3128 45.1651 76.4597 49.3358 68.5796 52.0616ZM65.3099 58.8255C66.1066 63.0267 66.2204 66.825 65.6927 69.7944C65.2185 72.4625 64.265 74.2414 63.086 74.9539C60.5771 76.4699 55.2119 74.4993 49.4257 69.3012C48.7623 68.7053 48.0942 68.069 47.4239 67.3956C49.6671 64.8344 51.909 61.8569 54.0971 58.5502C57.9457 58.1936 61.5817 57.6108 64.879 56.815C65.0414 57.4989 65.1857 58.1697 65.3099 58.8255ZM32.2445 74.6919C29.7933 75.5956 27.841 75.6215 26.6609 74.9111C24.1498 73.3991 23.1058 67.5625 24.5298 59.7332C24.6929 58.8366 24.887 57.9155 25.1108 56.9741C28.372 57.7269 31.9814 58.2686 35.8391 58.5951C38.0419 61.8309 40.3486 64.8051 42.6731 67.4094C42.1653 67.9212 41.6594 68.4085 41.1563 68.8677C38.0676 71.6863 34.9723 73.6861 32.2445 74.6919ZM20.7609 52.0419C16.879 50.6568 13.6732 48.8566 11.4758 46.8922C9.50129 45.1269 8.50439 43.3743 8.50439 41.9522C8.50439 38.9259 12.8263 35.0659 20.0344 32.4422C20.909 32.1239 21.8245 31.8239 22.7746 31.5421C23.7708 34.925 25.0776 38.462 26.6547 42.0386C25.0572 45.6683 23.7319 49.2617 22.7259 52.6843C22.0486 52.481 21.3923 52.2671 20.7609 52.0419ZM24.6103 24.6874C23.1142 16.7051 24.1078 10.6836 26.6082 9.17259C29.2715 7.56292 35.1609 9.85797 41.3682 15.6119C41.7649 15.9796 42.1633 16.3646 42.5628 16.7628C40.2497 19.3557 37.9641 22.3075 35.7809 25.5242C32.0368 25.8865 28.4528 26.4685 25.1576 27.2478C24.9504 26.3778 24.7669 25.523 24.6103 24.6874ZM58.9505 33.5396C58.1628 32.1192 57.3541 30.7323 56.5296 29.3833C59.0697 29.7185 61.5033 30.1635 63.7887 30.708C63.1026 33.0037 62.2474 35.4039 61.2407 37.8645C60.5186 36.4332 59.7548 34.9901 58.9505 33.5396ZM44.9467 19.3002C46.5153 21.0744 48.0863 23.0552 49.6314 25.2044C48.0744 25.1276 46.498 25.0877 44.9087 25.0877C43.3343 25.0877 41.7696 25.1267 40.2222 25.2022C41.7689 23.073 43.3535 21.0948 44.9467 19.3002ZM30.8531 33.5642C30.0662 34.9886 29.3166 36.4239 28.6058 37.8618C27.6154 35.4098 26.7682 32.9986 26.0761 30.6704C28.3475 30.1398 30.7696 29.7059 33.2935 29.377C32.4575 30.7385 31.6421 32.1356 30.8531 33.5639V33.5642ZM33.3662 54.7806C30.7586 54.4769 28.3 54.0654 26.0292 53.5494C26.7323 51.1796 27.5983 48.717 28.6096 46.2121C29.3223 47.649 30.0749 49.0849 30.8666 50.5124H30.8667C31.6732 51.9668 32.5086 53.3914 33.3662 54.7806ZM45.0407 64.8545C43.4288 63.0389 41.8211 61.0306 40.2508 58.8703C41.7752 58.9327 43.3292 58.9647 44.9087 58.9647C46.5313 58.9647 48.1354 58.9265 49.7143 58.8531C48.1641 61.0523 46.5988 63.0638 45.0407 64.8545ZM61.2732 46.0845C62.3372 48.6164 63.2342 51.0662 63.9464 53.3955C61.6382 53.9453 59.1461 54.388 56.5203 54.717C57.3467 53.3498 58.1625 51.9391 58.9641 50.488C59.7751 49.0199 60.5451 47.5496 61.2732 46.0845ZM56.0182 48.7143C54.7738 50.9669 53.4961 53.1173 52.1991 55.1471C49.8368 55.3234 47.3962 55.4142 44.9087 55.4142C42.4312 55.4142 40.0214 55.3339 37.7009 55.1767C36.3515 53.1202 35.0462 50.9635 33.8096 48.7337H33.8099C32.5767 46.5099 31.4416 44.2674 30.4131 42.0374C31.4413 39.8023 32.5734 37.5572 33.7996 35.3375L33.7993 35.3379C35.0287 33.1122 36.3226 30.966 37.6595 28.9224C40.0271 28.7356 42.4549 28.6381 44.9085 28.6381H44.9087C47.3733 28.6381 49.8043 28.7363 52.1712 28.9248C53.4876 30.9534 54.7728 33.0927 56.007 35.3187C57.2553 37.5697 58.402 39.7998 59.439 41.987C58.4051 44.2118 57.261 46.4644 56.0182 48.7143ZM63.0339 9.06697C65.6998 10.6719 66.7365 17.1446 65.0615 25.6324C64.9547 26.174 64.8344 26.7256 64.7037 27.2847C61.4009 26.4891 57.8143 25.897 54.0593 25.5293C51.8718 22.2772 49.6049 19.3207 47.3296 16.7612C47.9413 16.1468 48.5522 15.561 49.1605 15.0082C55.0379 9.66847 60.5311 7.56025 63.0339 9.06697Z" fill="white"/>
<path d="M44.9099 34.5308C48.836 34.5308 52.0188 37.8534 52.0188 41.9522C52.0188 46.0509 48.836 49.3736 44.9099 49.3736C40.9839 49.3736 37.801 46.0509 37.801 41.9522C37.801 37.8534 40.9839 34.5308 44.9099 34.5308Z" fill="#53C1DE"/>
</svg>
