<svg width="108" height="85" viewBox="0 0 108 85" fill="none" xmlns="http://www.w3.org/2000/svg">
<path d="M92.359 48.5463C88.6078 48.5685 85.3595 49.5156 82.6352 50.9258C81.6292 48.8329 80.6233 47.0042 80.4559 45.6385C80.2673 44.0523 80.0367 43.0827 80.2673 41.1883C80.4976 39.2935 81.5454 36.6058 81.5454 36.3854C81.5242 36.1872 81.3147 35.2178 79.1564 35.1958C76.998 35.1738 75.1327 35.6364 74.9231 36.2312C74.7136 36.8261 74.2944 38.1919 74.022 39.6019C73.6448 41.6728 69.7049 49.0089 67.4626 52.8643C66.7291 51.3662 66.1004 50.0444 65.9744 48.9867C65.786 47.4007 65.5553 46.4311 65.786 44.5367C66.0166 42.6419 67.0644 39.9544 67.0644 39.7341C67.0434 39.5358 66.8339 38.5665 64.6756 38.5444C62.5168 38.5224 60.6519 38.985 60.4423 39.5799C60.2328 40.1747 60.0022 41.5846 59.5412 42.9505C59.1009 44.3164 53.8617 56.5654 52.4996 59.7598C51.808 61.3901 51.2005 62.6899 50.7602 63.5711C50.3201 64.4523 50.7392 63.6372 50.6973 63.7253C50.3201 64.4743 50.1105 64.8929 50.1105 64.8929V64.9152C49.8171 65.4659 49.5028 65.9944 49.3559 65.9944C49.2511 65.9944 49.0415 64.5184 49.3978 62.4918C50.1732 58.2397 52.0593 51.6087 52.0385 51.3664C52.0385 51.2563 52.3946 50.0884 50.8228 49.4938C49.293 48.899 48.7483 49.8904 48.6224 49.8904C48.4966 49.8904 48.3919 50.2429 48.3919 50.2429C48.3919 50.2429 50.0893 42.7747 45.1436 42.7747C42.042 42.7747 37.7669 46.3216 35.6502 49.5601C34.309 50.3312 31.4589 51.9612 28.4412 53.7019C27.2886 54.3628 26.094 55.0678 24.9624 55.7066L24.7321 55.4418C18.7385 48.7225 7.65244 43.9639 8.11349 34.9314C8.28114 31.6489 9.37088 22.9909 29.4056 12.5044C45.8146 3.91248 58.9544 6.26975 61.2385 11.513C64.4867 19.0034 54.218 32.9267 37.1595 34.9314C30.663 35.7025 27.2469 33.0588 26.3878 32.0675C25.4867 31.032 25.361 30.988 25.0257 31.1862C24.4808 31.4947 24.8161 32.42 25.0257 32.9707C25.5286 34.3586 27.6243 36.8261 31.1869 38.0598C34.3092 39.1393 41.9376 39.7341 51.1586 35.9889C61.4902 31.7811 69.5584 20.1049 67.1903 10.3454C64.7803 0.409634 49.1048 -2.85088 34.2885 2.67878C25.4655 5.98335 15.9093 11.1385 9.03558 17.9019C0.862503 25.921 -0.436806 32.9267 0.108066 35.8347C2.01533 46.2111 15.6159 52.9744 21.0647 57.9753C20.7922 58.1293 20.5407 58.2836 20.3102 58.416C17.5859 59.8257 7.21235 65.5318 4.61373 71.5679C1.67981 78.3974 5.07478 83.3104 7.33809 83.9713C14.3376 86.0202 21.5048 82.3411 25.3817 76.2827C29.2375 70.2243 28.7767 62.3594 26.9954 58.7684L26.9323 58.6363L29.0699 57.3144C30.4532 56.4552 31.8154 55.6621 33.0097 54.979C32.3393 56.8956 31.8571 59.1648 31.6058 62.4694C31.3124 66.3469 32.8213 71.3697 34.8122 73.3524C35.6924 74.2114 36.7402 74.2336 37.3899 74.2336C39.6951 74.2336 40.7429 72.2286 41.8955 69.8275C43.3206 66.8975 44.578 63.5048 44.578 63.5048C44.578 63.5048 43.0062 72.6915 47.3023 72.6915C48.8741 72.6915 50.4458 70.5545 51.1583 69.453V69.4751C51.1583 69.4751 51.2003 69.409 51.2841 69.2547C51.372 69.1181 51.4559 68.9785 51.5356 68.8364V68.7923C52.1643 67.6467 53.5683 65.0251 55.664 60.6851C58.3672 55.0894 60.966 48.0836 60.966 48.0836C60.966 48.0836 61.2175 49.802 61.9929 52.6219C62.4537 54.2965 63.4596 56.1248 64.235 57.9093C63.6063 58.8345 63.2291 59.3635 63.2291 59.3635L63.2501 59.3855C62.7473 60.0905 62.1813 60.8398 61.5947 61.5886C59.4571 64.2763 56.9004 67.3388 56.5651 68.22C56.167 69.2552 56.2508 70.0263 57.0262 70.6433C57.592 71.0839 58.5979 71.1718 59.6667 71.0839C61.5947 70.9515 62.9359 70.4451 63.6066 70.1364C64.6544 69.7399 65.8489 69.145 67.0015 68.2638C69.0972 66.6338 70.3755 64.3206 70.2498 61.2363C70.1869 59.54 69.663 57.8656 69.0134 56.2794C69.202 55.993 69.3908 55.7064 69.5792 55.3982C72.8903 50.3089 75.447 44.7134 75.447 44.7134C75.447 44.7134 75.6985 46.4318 76.4739 49.2517C76.8719 50.6837 77.6684 52.2481 78.381 53.7902C75.2794 56.4559 73.3304 59.5402 72.6598 61.567C71.4234 65.3122 72.3874 67.0085 74.2106 67.4051C75.0277 67.5813 76.2015 67.1848 77.0814 66.7882C78.1712 66.4137 79.4914 65.7746 80.7071 64.8275C82.8028 63.1972 84.8146 60.9281 84.7099 57.8659C84.647 56.4559 84.2907 55.068 83.8087 53.7461C86.4492 52.6006 89.865 51.9396 94.2032 52.4904C103.529 53.636 105.373 59.7605 105.017 62.316C104.661 64.8718 102.712 66.2815 102.062 66.7221C101.412 67.1407 101.203 67.2951 101.266 67.6033C101.349 68.0662 101.643 68.044 102.209 67.956C102.984 67.8236 107.112 65.8631 107.28 61.1488C107.532 55.0896 102.062 48.4804 92.359 48.5463ZM20.436 74.0356C17.3553 77.5825 13.0173 78.9264 11.1732 77.7808C9.18227 76.5691 9.95746 71.3479 13.7508 67.5806C16.056 65.2895 19.0528 63.1745 21.0227 61.8747C21.4628 61.5884 22.1335 61.17 22.9298 60.6631C23.0555 60.5752 23.1394 60.5309 23.1394 60.5309C23.2861 60.4428 23.4537 60.3326 23.6214 60.2225C25.0255 65.5979 23.6842 70.3124 20.436 74.0356ZM42.9643 57.9313C41.8955 60.6851 39.6322 67.7569 38.27 67.3603C37.0963 67.0299 36.3839 61.6765 38.0393 56.3891C38.8776 53.7232 40.6589 50.5511 41.7067 49.3171C43.4044 47.3344 45.2484 46.6735 45.7096 47.4886C46.2545 48.5463 43.6349 56.2129 42.9643 57.9313ZM61.5528 67.2722C61.0918 67.5148 60.6726 67.6908 60.484 67.5588C60.3373 67.4707 60.6724 67.1403 60.6724 67.1403C60.6724 67.1403 62.9986 64.5186 63.9207 63.307C64.4446 62.6022 65.0733 61.7871 65.7439 60.8616V61.1259C65.7441 64.2981 62.8521 66.413 61.5528 67.2722ZM75.8869 63.8355C75.5516 63.5711 75.5937 62.756 76.7252 60.2004C77.1655 59.187 78.1712 57.4907 79.9106 55.8824C80.1201 56.5434 80.2461 57.182 80.2249 57.7771C80.2042 61.7426 77.5217 63.2186 75.8869 63.8355Z" fill="#CF649A"/>
</svg>
