<svg width="150" height="150" viewBox="0 0 150 150" fill="none" xmlns="http://www.w3.org/2000/svg">
<rect x="1.5" y="1.5" width="147" height="147" rx="73.5" fill="#FECE1A" stroke="white" stroke-width="3"/>
<path d="M41.4765 77.849C39.0468 77.849 36.691 77.0663 35.1575 76.2798L34 80.99C35.4201 81.7753 38.2628 82.5223 41.1413 82.5223C48.0582 82.5223 51.3101 78.9338 51.3101 74.7092C51.3101 71.1577 49.2157 68.8402 44.768 67.1945C41.5148 65.9592 40.0947 65.2504 40.0947 63.6429C40.0947 62.3338 41.2904 61.212 43.7584 61.212C46.2263 61.212 48.0212 61.9233 49.0296 62.409L50.3018 57.8109C48.8052 57.1378 46.712 56.5399 43.8706 56.5399C37.9263 56.5399 34.3365 59.8288 34.3365 64.1286C34.3365 67.7923 37.0658 70.1099 41.2534 71.5682C44.281 72.653 45.478 73.5505 45.478 75.1184C45.478 76.7654 44.0936 77.849 41.4765 77.849Z" fill="white"/>
<path d="M71.2375 77.4755H60.8825V71.4943H70.1526V66.858H60.8825V61.6238H70.7148V56.9504H55.1613V82.1488H71.2375V77.4755Z" fill="white"/>
<path d="M90.5055 84.061C94.043 84.061 97.2847 82.7875 99.8088 80.679L104.828 85.3625C104.82 85.8852 105.01 86.4027 105.42 86.7864L112.785 93.6625C113.153 94.0067 113.62 94.1763 114.087 94.1763C114.599 94.1763 115.11 93.9723 115.486 93.5669C116.206 92.797 116.164 91.5834 115.394 90.8644L108.03 83.9896C107.619 83.6059 107.086 83.4542 106.569 83.4962L101.616 78.8752C103.747 76.3473 105.038 73.0865 105.038 69.5286C105.038 61.5166 98.5212 55 90.5093 55C82.4974 55 75.9769 61.5192 75.9769 69.5298C75.9756 77.5443 82.4935 84.061 90.5055 84.061ZM90.5055 58.8256C96.4089 58.8256 101.211 63.6277 101.211 69.5298C101.211 75.432 96.4064 80.2354 90.5055 80.2354C84.6046 80.2354 79.7999 75.432 79.7999 69.5298C79.7999 63.6277 84.602 58.8256 90.5055 58.8256Z" fill="white"/>
</svg>
